<svg width="15" height="16" viewBox="0 0 15 16" fill="none" xmlns="http://www.w3.org/2000/svg">
<path d="M13.4057 1.79145C11.5895 1.08049 9.65562 0.717431 7.70512 0.721221C3.33382 0.721221 0.265625 3.64389 0.265625 8.2488C0.265625 12.9061 2.92772 15.7764 7.64612 15.7764C9.62492 15.7899 11.5854 15.3967 13.4057 14.6211C13.6384 14.5363 13.836 14.3762 13.9671 14.1663C14.0982 13.9563 14.1553 13.7086 14.1294 13.4625V2.95004C14.1294 2.28238 13.8707 1.96492 13.4057 1.79145ZM10.3671 11.25C10.3671 11.6853 10.1346 11.8882 9.64352 12.0322C9.00472 12.2139 8.34293 12.3021 7.67883 12.2941C5.82553 12.2941 4.07702 11.1944 4.07702 8.2423C4.07702 5.2901 5.81243 4.19373 7.67883 4.19373C8.34282 4.18465 9.00452 4.27175 9.64352 4.45229C10.1346 4.5963 10.3671 4.7992 10.3671 5.2345V11.25Z" fill="black"/>
</svg>
