<svg width="10" height="21" viewBox="0 0 10 21" fill="none" xmlns="http://www.w3.org/2000/svg">
<path d="M8.72943 0.426411C8.13293 0.285744 7.52162 0.217613 6.90882 0.223495C3.30702 0.223495 0.975627 2.13485 0.975627 6.30121V19.8967C0.970927 19.9737 0.98253 20.0509 1.00983 20.1231C1.03703 20.1953 1.07922 20.2609 1.13372 20.3156C1.18812 20.3704 1.25353 20.413 1.32563 20.4406C1.39773 20.4682 1.47483 20.4803 1.55193 20.476H4.12892C4.20622 20.4808 4.28373 20.4691 4.35623 20.4416C4.42873 20.4142 4.49453 20.3717 4.54933 20.3169C4.60413 20.2622 4.64673 20.1964 4.67413 20.1239C4.70153 20.0515 4.71322 19.974 4.70842 19.8967V9.19441H8.38233C8.46023 9.20144 8.53872 9.19129 8.61222 9.16467C8.68572 9.13804 8.75243 9.09558 8.80773 9.04032C8.86303 8.98505 8.90542 8.91833 8.93212 8.84485C8.95872 8.77137 8.96892 8.69296 8.96193 8.61513V6.61867C8.97183 6.53889 8.96392 6.45791 8.93872 6.38157C8.91352 6.30523 8.87173 6.23543 8.81623 6.1772C8.76083 6.11897 8.69313 6.07376 8.61813 6.04484C8.54303 6.01591 8.46253 6.00398 8.38233 6.00992H4.70842V5.68263C4.70842 4.09202 5.40263 3.28034 7.00053 3.28034C7.58013 3.28034 8.20222 3.42762 8.41832 3.42762C8.76542 3.42762 8.90953 3.22471 8.96843 2.87778L9.25983 1.37227C9.28883 1.24857 9.30743 1.12267 9.31553 0.99589C9.30902 0.68496 9.13543 0.51478 8.72943 0.426411Z" fill="black"/>
</svg>
