<svg width="14" height="16" viewBox="0 0 14 16" fill="none" xmlns="http://www.w3.org/2000/svg">
<path d="M7.20067 0.721191C5.21607 0.734841 3.24827 1.08681 1.38207 1.76196C1.14947 1.84674 0.951874 2.00684 0.820774 2.21677C0.689674 2.42671 0.632473 2.67442 0.658473 2.92055V14.896C0.653673 14.9733 0.665371 15.0507 0.692771 15.1232C0.720271 15.1956 0.762773 15.2614 0.817573 15.3162C0.872373 15.371 0.938173 15.4135 1.01067 15.4409C1.08317 15.4684 1.16067 15.4801 1.23797 15.4753H3.85747C3.93487 15.4801 4.01237 15.4684 4.08487 15.4409C4.15737 15.4135 4.22317 15.371 4.27797 15.3162C4.33277 15.2614 4.37527 15.1956 4.40277 15.1232C4.43017 15.0507 4.44187 14.9733 4.43707 14.896V5.1756C4.43707 4.7435 4.66627 4.5406 5.13127 4.4228C5.83197 4.25321 6.55197 4.17619 7.27267 4.1937C8.83457 4.1937 10.0789 4.917 10.0789 6.6516V14.896C10.0741 14.9733 10.0858 15.0507 10.1132 15.1232C10.1407 15.1956 10.1832 15.2614 10.238 15.3162C10.2928 15.371 10.3586 15.4135 10.4311 15.4409C10.5036 15.4684 10.5811 15.4801 10.6584 15.4753H13.278C13.355 15.4796 13.4322 15.4675 13.5043 15.4399C13.5764 15.4122 13.6418 15.3696 13.6962 15.3149C13.7507 15.2602 13.7929 15.1946 13.8201 15.1224C13.8474 15.0502 13.859 14.973 13.8543 14.896V6.1607C13.8281 2.62927 11.6572 0.721191 7.20067 0.721191Z" fill="black"/>
</svg>
