<svg width="14" height="16" viewBox="0 0 14 16" fill="none" xmlns="http://www.w3.org/2000/svg">
<path d="M4.03447 5.553C4.03447 4.6693 4.93163 4.10638 6.46732 4.10638C7.94407 4.10638 9.36187 4.5973 10.8386 5.4155C10.9694 5.4927 11.119 5.5324 11.2709 5.5301C11.4062 5.5283 11.5386 5.4899 11.6539 5.4191C11.7692 5.3482 11.8631 5.2474 11.9257 5.1275L12.8229 3.21615C12.8961 3.06268 12.9352 2.89521 12.9375 2.72522C12.9378 2.60625 12.9056 2.48945 12.8445 2.38738C12.7833 2.28532 12.6955 2.20183 12.5904 2.14591C10.76 1.12407 8.69484 0.596186 6.5983 0.614216C2.72143 0.614216 0.23291 2.69577 0.23291 5.8214C0.23291 11.9547 9.55181 9.5786 9.55181 13.8333C9.55488 14.1973 9.49619 14.5592 9.37825 14.9036C9.36067 14.9598 9.35076 15.0181 9.34879 15.077C9.34601 15.1336 9.35561 15.1901 9.37693 15.2426C9.39826 15.2951 9.4308 15.3424 9.47226 15.381C9.51373 15.4196 9.56315 15.4488 9.61704 15.4664C9.67093 15.4839 9.72798 15.4896 9.78427 15.4828H12.3874C12.8229 15.4828 12.9964 15.3388 13.1405 14.9036C13.3015 14.3732 13.38 13.8213 13.373 13.2671C13.3567 6.6821 4.03447 8.2629 4.03447 5.553Z" fill="black"/>
</svg>
