<svg width="80" height="23" viewBox="0 0 80 23" fill="none" xmlns="http://www.w3.org/2000/svg">
<path d="M28.4057 7.79145C26.5895 7.08049 24.6556 6.71743 22.7051 6.72122C18.3338 6.72122 15.2656 9.64389 15.2656 14.2488C15.2656 18.9061 17.9277 21.7764 22.6461 21.7764C24.6249 21.7899 26.5854 21.3967 28.4057 20.6211C28.6384 20.5363 28.836 20.3762 28.9671 20.1663C29.0982 19.9563 29.1553 19.7086 29.1294 19.4625V8.95004C29.1294 8.28238 28.8707 7.96492 28.4057 7.79145ZM25.3671 17.25C25.3671 17.6853 25.1346 17.8882 24.6435 18.0322C24.0047 18.2139 23.3429 18.3021 22.6788 18.2941C20.8255 18.2941 19.077 17.1944 19.077 14.2423C19.077 11.2901 20.8124 10.1937 22.6788 10.1937C23.3428 10.1847 24.0045 10.2718 24.6435 10.4523C25.1346 10.5963 25.3671 10.7992 25.3671 11.2345V17.25Z" fill="black"/>
<path d="M4.03447 11.553C4.03447 10.6693 4.93163 10.1064 6.46732 10.1064C7.94407 10.1064 9.36187 10.5973 10.8386 11.4155C10.9694 11.4927 11.119 11.5324 11.2709 11.5301C11.4062 11.5283 11.5386 11.4899 11.6539 11.4191C11.7692 11.3482 11.8631 11.2474 11.9257 11.1275L12.8229 9.21615C12.8961 9.06268 12.9352 8.89521 12.9375 8.72522C12.9378 8.60625 12.9056 8.48945 12.8445 8.38738C12.7833 8.28532 12.6955 8.20183 12.5904 8.14591C10.76 7.12407 8.69484 6.59619 6.5983 6.61422C2.72143 6.61422 0.23291 8.69577 0.23291 11.8214C0.23291 17.9547 9.55181 15.5786 9.55181 19.8333C9.55488 20.1973 9.49619 20.5592 9.37825 20.9036C9.36067 20.9598 9.35076 21.0181 9.34879 21.077C9.34601 21.1336 9.35561 21.1901 9.37693 21.2426C9.39826 21.2951 9.4308 21.3424 9.47226 21.381C9.51373 21.4196 9.56315 21.4488 9.61704 21.4664C9.67093 21.4839 9.72798 21.4896 9.78427 21.4828H12.3874C12.8229 21.4828 12.9964 21.3388 13.1405 20.9036C13.3015 20.3732 13.38 19.8213 13.373 19.2671C13.3567 12.6821 4.03447 14.2629 4.03447 11.553Z" fill="black"/>
<path d="M39.2007 6.72119C37.2161 6.73484 35.2483 7.08681 33.3821 7.76196C33.1495 7.84674 32.9519 8.00684 32.8208 8.21677C32.6897 8.42671 32.6325 8.67442 32.6585 8.92055V20.896C32.6537 20.9733 32.6654 21.0507 32.6928 21.1232C32.7203 21.1956 32.7628 21.2614 32.8176 21.3162C32.8724 21.371 32.9382 21.4135 33.0107 21.4409C33.0832 21.4684 33.1607 21.4801 33.238 21.4753H35.8575C35.9349 21.4801 36.0124 21.4684 36.0849 21.4409C36.1574 21.4135 36.2232 21.371 36.278 21.3162C36.3328 21.2614 36.3753 21.1956 36.4028 21.1232C36.4302 21.0507 36.4419 20.9733 36.4371 20.896V11.1756C36.4371 10.7435 36.6663 10.5406 37.1313 10.4228C37.832 10.2532 38.552 10.1762 39.2727 10.1937C40.8346 10.1937 42.0789 10.917 42.0789 12.6516V20.896C42.0741 20.9733 42.0858 21.0507 42.1132 21.1232C42.1407 21.1956 42.1832 21.2614 42.238 21.3162C42.2928 21.371 42.3586 21.4135 42.4311 21.4409C42.5036 21.4684 42.5811 21.4801 42.6584 21.4753H45.278C45.355 21.4796 45.4322 21.4675 45.5043 21.4399C45.5764 21.4122 45.6418 21.3696 45.6962 21.3149C45.7507 21.2602 45.7929 21.1946 45.8201 21.1224C45.8474 21.0502 45.859 20.973 45.8543 20.896V12.1607C45.8281 8.62927 43.6572 6.72119 39.2007 6.72119Z" fill="black"/>
<path d="M55.7858 6.72119C51.444 6.72119 48.6084 9.87296 48.6084 14.2488C48.6084 18.6246 51.444 21.7764 55.9888 21.7764C60.3307 21.7764 63.1663 18.6246 63.1663 14.2488C63.1663 9.87296 60.3307 6.72119 55.7858 6.72119ZM55.9888 18.294C53.8474 18.294 52.4296 16.9031 52.4296 14.2422C52.4296 11.5814 53.8474 10.1937 55.7858 10.1937C57.9273 10.1937 59.3451 11.5814 59.3451 14.2422C59.3451 16.9031 57.9273 18.294 55.9888 18.294Z" fill="black"/>
<path d="M79.2862 7.0083H76.6831C76.363 7.0083 76.1035 7.26766 76.1035 7.5876V20.8951C76.1035 21.215 76.363 21.4744 76.6831 21.4744H79.2862C79.6063 21.4744 79.8658 21.215 79.8658 20.8951V7.5876C79.8658 7.26766 79.6063 7.0083 79.2862 7.0083Z" fill="black"/>
<path d="M73.7294 1.42641C73.1329 1.28574 72.5216 1.21761 71.9088 1.2235C68.307 1.2235 65.9756 3.13485 65.9756 7.30121V20.8967C65.9709 20.9737 65.9825 21.0509 66.0098 21.1231C66.037 21.1953 66.0792 21.2609 66.1337 21.3156C66.1881 21.3704 66.2535 21.413 66.3256 21.4406C66.3977 21.4682 66.4748 21.4803 66.5519 21.476H69.1289C69.2062 21.4808 69.2837 21.4691 69.3562 21.4416C69.4287 21.4142 69.4945 21.3717 69.5493 21.3169C69.6041 21.2622 69.6467 21.1964 69.6741 21.1239C69.7015 21.0515 69.7132 20.974 69.7084 20.8967V10.1944H73.3823C73.4602 10.2014 73.5387 10.1913 73.6122 10.1647C73.6857 10.138 73.7524 10.0956 73.8077 10.0403C73.863 9.98505 73.9054 9.91833 73.9321 9.84485C73.9587 9.77137 73.9689 9.69296 73.9619 9.61513V7.61867C73.9718 7.53889 73.9639 7.45791 73.9387 7.38157C73.9135 7.30523 73.8717 7.23543 73.8162 7.1772C73.7608 7.11897 73.6931 7.07376 73.6181 7.04484C73.543 7.01591 73.4625 7.00398 73.3823 7.00992H69.7084V6.68263C69.7084 5.09202 70.4026 4.28034 72.0005 4.28034C72.5801 4.28034 73.2022 4.42762 73.4183 4.42762C73.7654 4.42762 73.9095 4.22471 73.9684 3.87778L74.2598 2.37227C74.2888 2.24857 74.3074 2.12267 74.3155 1.99589C74.309 1.68496 74.1354 1.51478 73.7294 1.42641Z" fill="black"/>
<path d="M1.96463 17.7759C0.779304 17.7759 0 18.5254 0 19.769C0 21.0127 0.782588 21.7655 2.05632 21.7655C3.24165 21.7655 4.02096 20.9865 4.02096 19.769C4.02096 18.5515 3.23837 17.7759 1.96463 17.7759Z" fill="#7A00E6"/>
<path d="M77.9436 1.229C76.755 1.229 75.979 1.98177 75.979 3.22546C75.979 4.46915 76.7616 5.2219 78.0353 5.2219C79.2207 5.2219 80 4.4397 80 3.22546C80 2.01123 79.2141 1.229 77.9436 1.229Z" fill="#7A00E6"/>
</svg>
