<svg width="80" height="23" viewBox="0 0 80 23" fill="none" xmlns="http://www.w3.org/2000/svg">
<g clip-path="url(#clip0_1_1737)">
<path d="M28.4057 7.54145C26.5895 6.83049 24.6556 6.46743 22.7051 6.47122C18.3338 6.47122 15.2656 9.39389 15.2656 13.9988C15.2656 18.6561 17.9277 21.5264 22.6461 21.5264C24.6249 21.5399 26.5854 21.1467 28.4057 20.3711C28.6384 20.2863 28.836 20.1262 28.9671 19.9163C29.0982 19.7063 29.1553 19.4586 29.1294 19.2125V8.70004C29.1294 8.03238 28.8707 7.71492 28.4057 7.54145ZM25.3671 17C25.3671 17.4353 25.1346 17.6382 24.6435 17.7822C24.0047 17.9639 23.3429 18.0521 22.6788 18.0441C20.8255 18.0441 19.077 16.9444 19.077 13.9923C19.077 11.0401 20.8124 9.94373 22.6788 9.94373C23.3428 9.93465 24.0045 10.0218 24.6435 10.2023C25.1346 10.3463 25.3671 10.5492 25.3671 10.9845V17Z" fill="white"/>
<path d="M4.03447 11.303C4.03447 10.4193 4.93163 9.85638 6.46732 9.85638C7.94407 9.85638 9.36187 10.3473 10.8386 11.1655C10.9694 11.2427 11.119 11.2824 11.2709 11.2801C11.4062 11.2783 11.5386 11.2399 11.6539 11.1691C11.7692 11.0982 11.8631 10.9974 11.9257 10.8775L12.8229 8.96615C12.8961 8.81268 12.9352 8.64521 12.9375 8.47522C12.9378 8.35625 12.9056 8.23945 12.8445 8.13738C12.7833 8.03532 12.6955 7.95183 12.5904 7.89591C10.76 6.87407 8.69484 6.34619 6.5983 6.36422C2.72143 6.36422 0.23291 8.44577 0.23291 11.5714C0.23291 17.7047 9.55181 15.3286 9.55181 19.5833C9.55488 19.9473 9.49619 20.3092 9.37825 20.6536C9.36067 20.7098 9.35076 20.7681 9.34879 20.827C9.34601 20.8836 9.35561 20.9401 9.37693 20.9926C9.39826 21.0451 9.4308 21.0924 9.47226 21.131C9.51373 21.1696 9.56315 21.1988 9.61704 21.2164C9.67093 21.2339 9.72798 21.2396 9.78427 21.2328H12.3874C12.8229 21.2328 12.9964 21.0888 13.1405 20.6536C13.3015 20.1232 13.38 19.5713 13.373 19.0171C13.3567 12.4321 4.03447 14.0129 4.03447 11.303Z" fill="white"/>
<path d="M39.2007 6.47119C37.2161 6.48484 35.2483 6.83681 33.3821 7.51196C33.1495 7.59674 32.9519 7.75684 32.8208 7.96677C32.6897 8.17671 32.6325 8.42442 32.6585 8.67055V20.646C32.6537 20.7233 32.6654 20.8007 32.6928 20.8732C32.7203 20.9456 32.7628 21.0114 32.8176 21.0662C32.8724 21.121 32.9382 21.1635 33.0107 21.1909C33.0832 21.2184 33.1607 21.2301 33.238 21.2253H35.8575C35.9349 21.2301 36.0124 21.2184 36.0849 21.1909C36.1574 21.1635 36.2232 21.121 36.278 21.0662C36.3328 21.0114 36.3753 20.9456 36.4028 20.8732C36.4302 20.8007 36.4419 20.7233 36.4371 20.646V10.9256C36.4371 10.4935 36.6663 10.2906 37.1313 10.1728C37.832 10.0032 38.552 9.92619 39.2727 9.9437C40.8346 9.9437 42.0789 10.667 42.0789 12.4016V20.646C42.0741 20.7233 42.0858 20.8007 42.1132 20.8732C42.1407 20.9456 42.1832 21.0114 42.238 21.0662C42.2928 21.121 42.3586 21.1635 42.4311 21.1909C42.5036 21.2184 42.5811 21.2301 42.6584 21.2253H45.278C45.355 21.2296 45.4322 21.2175 45.5043 21.1899C45.5764 21.1622 45.6418 21.1196 45.6962 21.0649C45.7507 21.0102 45.7929 20.9446 45.8201 20.8724C45.8474 20.8002 45.859 20.723 45.8543 20.646V11.9107C45.8281 8.37927 43.6572 6.47119 39.2007 6.47119Z" fill="white"/>
<path d="M55.7858 6.47119C51.444 6.47119 48.6084 9.62296 48.6084 13.9988C48.6084 18.3746 51.444 21.5264 55.9888 21.5264C60.3307 21.5264 63.1663 18.3746 63.1663 13.9988C63.1663 9.62296 60.3307 6.47119 55.7858 6.47119ZM55.9888 18.044C53.8474 18.044 52.4296 16.6531 52.4296 13.9922C52.4296 11.3314 53.8474 9.9437 55.7858 9.9437C57.9273 9.9437 59.3451 11.3314 59.3451 13.9922C59.3451 16.6531 57.9273 18.044 55.9888 18.044Z" fill="white"/>
<path d="M79.2862 6.7583H76.6831C76.363 6.7583 76.1035 7.01766 76.1035 7.3376V20.6451C76.1035 20.965 76.363 21.2244 76.6831 21.2244H79.2862C79.6063 21.2244 79.8658 20.965 79.8658 20.6451V7.3376C79.8658 7.01766 79.6063 6.7583 79.2862 6.7583Z" fill="white"/>
<path d="M73.7294 1.17641C73.1329 1.03574 72.5216 0.967613 71.9088 0.973495C68.307 0.973495 65.9756 2.88485 65.9756 7.05121V20.6467C65.9709 20.7237 65.9825 20.8009 66.0098 20.8731C66.037 20.9453 66.0792 21.0109 66.1337 21.0656C66.1881 21.1204 66.2535 21.163 66.3256 21.1906C66.3977 21.2182 66.4748 21.2303 66.5519 21.226H69.1289C69.2062 21.2308 69.2837 21.2191 69.3562 21.1916C69.4287 21.1642 69.4945 21.1217 69.5493 21.0669C69.6041 21.0122 69.6467 20.9464 69.6741 20.8739C69.7015 20.8015 69.7132 20.724 69.7084 20.6467V9.94441H73.3823C73.4602 9.95144 73.5387 9.94129 73.6122 9.91467C73.6857 9.88804 73.7524 9.84558 73.8077 9.79032C73.863 9.73505 73.9054 9.66833 73.9321 9.59485C73.9587 9.52137 73.9689 9.44296 73.9619 9.36513V7.36867C73.9718 7.28889 73.9639 7.20791 73.9387 7.13157C73.9135 7.05523 73.8717 6.98543 73.8162 6.9272C73.7608 6.86897 73.6931 6.82376 73.6181 6.79484C73.543 6.76591 73.4625 6.75398 73.3823 6.75992H69.7084V6.43263C69.7084 4.84202 70.4026 4.03034 72.0005 4.03034C72.5801 4.03034 73.2022 4.17762 73.4183 4.17762C73.7654 4.17762 73.9095 3.97471 73.9684 3.62778L74.2598 2.12227C74.2888 1.99857 74.3074 1.87267 74.3155 1.74589C74.309 1.43496 74.1354 1.26478 73.7294 1.17641Z" fill="white"/>
<path d="M1.96463 17.5259C0.779304 17.5259 0 18.2754 0 19.519C0 20.7627 0.782588 21.5155 2.05632 21.5155C3.24165 21.5155 4.02096 20.7365 4.02096 19.519C4.02096 18.3015 3.23837 17.5259 1.96463 17.5259Z" fill="white"/>
<path d="M77.9436 0.979004C76.755 0.979004 75.979 1.73177 75.979 2.97546C75.979 4.21915 76.7616 4.9719 78.0353 4.9719C79.2207 4.9719 80 4.1897 80 2.97546C80 1.76123 79.2141 0.979004 77.9436 0.979004Z" fill="white"/>
</g>
<defs>
<clipPath id="clip0_1_1737">
<rect width="80" height="22" fill="white" transform="translate(0 0.25)"/>
</clipPath>
</defs>
</svg>
